# xmcd
#
# Track frame offsets: 
#        150
#        12956
#        28818
#        44085
#        59223
#        75151
#        90846
#        109495
#        127241
#        142058
#        159380
#        177352
#        195873
#        215070
#        233153
#
# Disc length: 3532 seconds
#
# Revision: 0
# Processed by: cddbd v1.5.2PL0 Copyright (c) Steve Scherf et al.
# Submitted via: ExactAudioCopy v1.0b3
#
DISCID=d40dca0f
DTITLE=Various Artist - Trance Gladiators Vol. 1 - CD 2
DYEAR=1900
DGENRE=
TTITLE0=Pimp! Code - Wicked Body Moves (Radio Edit)
TTITLE1=Eliess - Don't Stop Till You Get Enough (Pakito Radio Mix)
TTITLE2=The Real Booty Babes - Dance-Mp3.Com (Get Up Radio Mix)
TTITLE3=2 Playa's - Tune (Original Radio Cut)
TTITLE4=Peter Luts and Dominico - What A Feeling (Hitmen Radio Mix)
TTITLE5=Tune Up! Vs. Italobrothers - Colours Of The Rainbow (Radio Mix
TTITLE5=)
TTITLE6=Dancetech Vs. Tune Up! - Ride On Time (Radio Mix)
TTITLE7=DJ E-Maxx - Make You Move
TTITLE8=Orange Allstars - Afterhours Club (Original Radio Mix)
TTITLE9=Danceforce - Rock Ya Mind (DJ Mikesh Remix Edit)
TTITLE10=Datura Vs. MNS - Infinity (DJ MNS Vs. E-Maxx Remix Edit)
TTITLE11=Hands Up Squad - Be Denied
TTITLE12=Molella - Originale Radicale Musicale (DJ MNS Vs. DJ E-MaxX R
TTITLE12=emix Edit)
TTITLE13=Apollo Brothers - One Of Us (Barcera Vs. Roland Kenzo Radio M
TTITLE13=ix)
TTITLE14=Johan Gielen - Revelations (Filterheadz Remix)
EXTD=
EXTT0=
EXTT1=
EXTT2=
EXTT3=
EXTT4=
EXTT5=
EXTT6=
EXTT7=
EXTT8=
EXTT9=
EXTT10=
EXTT11=
EXTT12=
EXTT13=
EXTT14=
PLAYORDER=
